# xmcd CD database file
#
# Track frame offsets:
#	150
#	23375
#	41560
#	54912
#	68962
#	89745
#	110055
#	139312
#	154765
#	178995
#	197775
#	213145
#	231457
#	261422
#	276320
#
# Disc length: 3965 seconds
#
# Revision: 4
# Processed by: cddbd v1.5.2PL0 Copyright (c) Steve Scherf et al.
# Submitted via: CDex 1.51
#
DISCID=e50f7b0f
DTITLE=Lurrie Bell - The Blues Had A Baby
DYEAR=1999
DGENRE=Blues
TTITLE0=Givin' Me A Hard Time
TTITLE1=Got My Eyes On You
TTITLE2=You're The One
TTITLE3=Rapid Transit
TTITLE4=Mean Black Spider
TTITLE5=Blues Had A Baby
TTITLE6=Lurrie's Walk
TTITLE7=Mean Old Frisco
TTITLE8=Five Long Years
TTITLE9=Who Do You Love?
TTITLE10=Raised On The Blues
TTITLE11=I'll Be Your 44
TTITLE12=If I Had A Hammer
TTITLE13=Mary Had A Little Lamb
TTITLE14=Rollin' and Tumblin'
EXTD=YEAR: 1999
EXTT0=
EXTT1=
EXTT2=
EXTT3=
EXTT4=
EXTT5=
EXTT6=
EXTT7=
EXTT8=
EXTT9=
EXTT10=
EXTT11=
EXTT12=
EXTT13=
EXTT14=
PLAYORDER=
